<?xml version="1.0" encoding="utf-8"?>
<!-- Generator: Adobe Illustrator 18.1.1, SVG Export Plug-In . SVG Version: 6.00 Build 0)  -->
<svg version="1.1" id="Layer_1" xmlns="http://www.w3.org/2000/svg" xmlns:xlink="http://www.w3.org/1999/xlink" x="0px" y="0px"
	 viewBox="0 0 210 45" enable-background="new 0 0 210 45" xml:space="preserve">
<g>
	<g>
		<g>
			<path fill="#5BC7FF" d="M23.2,40.6c7.4,0,13.8-4.5,16.6-10.9c-0.1,0-0.2,0-0.3,0c-1,0-1.8,0.5-2.3,1.2c-1.1-0.2-1.8,0.5-2,1
				c-0.5,1.2-3.3,1.2-4.7,0.4c-3-1.8-4.4-3.7-4.4-3.7s0.7,4.6-3.3,4.6c-3,0-5.5-3.1-5.5-3.1s-2.3,2.8-7.4,2.2
				C9,32.2,8.3,32,7.6,31.8C10.8,37.1,16.6,40.6,23.2,40.6z"/>
			<path fill="#5BC1FF" d="M39.2,25.7c0-0.9-0.7-1.6-1.6-1.6c-0.9,0-1.6,0.7-1.6,1.6c0,0.9,0.7,1.6,1.6,1.6
				C38.4,27.4,39.2,26.6,39.2,25.7z"/>
			<circle fill="#5BC1FF" cx="35" cy="28.3" r="0.7"/>
			<circle fill="#5BC1FF" cx="36.6" cy="29.6" r="0.4"/>
			<path fill="#5BC1FF" d="M32.6,31.7c-0.2-0.1-2,0.3-3.9-2.1c0,0,1.2,2.1,2.9,2.7C33.3,32.9,32.8,31.8,32.6,31.7z"/>
		</g>
		<g>
			<path fill="#B5B5B5" d="M39.8,29.8c-2.8,6.4-9.2,10.9-16.6,10.9c-6.6,0-12.4-3.6-15.6-8.8c-1-1.6-1.7-3.4-2.1-5.3H1.6
				c1.9,10.2,10.8,18,21.6,18c10.7,0,19.7-7.8,21.6-18h-3.9C40.6,27.6,40.3,28.7,39.8,29.8z"/>
			<path fill="#B5B5B5" d="M23.2,0.5c-12.1,0-22,9.9-22,22c0,0,0,0,0,0h3.8c0,0,0,0,0,0c0-1.1,0.1-2.2,0.3-3.3H41
				c0.2,1.1,0.3,2.2,0.3,3.3c0,0,0,0,0,0h3.8c0,0,0,0,0,0C45.2,10.4,35.3,0.5,23.2,0.5z M6.4,15.7C9.1,9,15.6,4.4,23.2,4.4
				C30.8,4.4,37.3,9,40,15.7H6.4z"/>
		</g>
	</g>
	<g>
		<g>
			<path fill="#9A9A9A" d="M66.4,18.7h2.6v10.8h-2.5l-0.1-1.6c-0.6,1.3-2.3,1.9-3.5,1.9c-3.2,0-5.5-1.9-5.5-5.7
				c0-3.7,2.5-5.7,5.6-5.6c1.4,0,2.8,0.7,3.4,1.7L66.4,18.7z M59.9,24.1c0,2,1.4,3.3,3.2,3.3c4.2,0,4.2-6.5,0-6.5
				C61.3,20.8,59.9,22,59.9,24.1z"/>
			<path fill="#9A9A9A" d="M80.6,28.1c-1.2,1.2-2.6,1.7-4.1,1.7c-3.1,0-5.7-1.9-5.7-5.7c0-3.8,2.6-5.7,5.7-5.7
				c1.5,0,2.7,0.4,3.9,1.6l-1.7,1.8c-0.6-0.6-1.4-0.9-2.2-0.9c-1.8,0-3.1,1.3-3.1,3.2c0,2.1,1.4,3.1,3.1,3.1c0.9,0,1.7-0.2,2.4-0.9
				L80.6,28.1z"/>
			<path fill="#9A9A9A" d="M91,28.1c-1.2,1.2-2.6,1.7-4.1,1.7c-3.1,0-5.7-1.9-5.7-5.7c0-3.8,2.6-5.7,5.7-5.7c1.5,0,2.7,0.4,3.9,1.6
				l-1.7,1.8c-0.6-0.6-1.4-0.9-2.2-0.9c-1.8,0-3.1,1.3-3.1,3.2c0,2.1,1.4,3.1,3.1,3.1c0.9,0,1.7-0.2,2.4-0.9L91,28.1z"/>
			<path fill="#9A9A9A" d="M94.9,25.1c0.2,1.3,1.3,2.3,3.2,2.3c1,0,2.3-0.4,2.9-1l1.7,1.7c-1.1,1.2-3,1.7-4.6,1.7
				c-3.7,0-5.9-2.3-5.9-5.7c0-3.3,2.2-5.6,5.7-5.6c3.6,0,5.8,2.2,5.4,6.7H94.9z M100.8,22.9c-0.2-1.4-1.3-2.1-2.8-2.1
				c-1.4,0-2.6,0.7-3,2.1H100.8z"/>
			<path fill="#9A9A9A" d="M112.4,21.6c-0.8-0.7-1.6-1-2.7-1c-1.3,0-2,0.4-2,1.1c0,0.7,0.6,1.1,2,1.2c2,0.1,4.6,0.6,4.6,3.4
				c0,1.9-1.6,3.5-4.6,3.5c-1.7,0-3.4-0.3-5-1.9l1.3-1.9c0.8,0.9,2.5,1.5,3.7,1.5c1,0,1.9-0.5,1.9-1.3c0-0.7-0.6-1-2.1-1.1
				c-2-0.2-4.4-0.9-4.4-3.3c0-2.5,2.6-3.4,4.5-3.4c1.7,0,2.9,0.3,4.2,1.4L112.4,21.6z"/>
			<path fill="#9A9A9A" d="M123.1,21.6c-0.8-0.7-1.6-1-2.7-1c-1.3,0-2,0.4-2,1.1c0,0.7,0.6,1.1,2,1.2c2,0.1,4.6,0.6,4.6,3.4
				c0,1.9-1.6,3.5-4.6,3.5c-1.7,0-3.4-0.3-5-1.9l1.3-1.9c0.8,0.9,2.5,1.5,3.7,1.5c1,0,1.9-0.5,1.9-1.3c0-0.7-0.6-1-2.1-1.1
				c-2-0.2-4.5-0.9-4.5-3.3c0-2.5,2.6-3.4,4.5-3.4c1.7,0,2.9,0.3,4.2,1.4L123.1,21.6z"/>
		</g>
		<g>
			<path fill="#B5B5B5" d="M133.2,14.2v15.2h-2.6V14.2H133.2z"/>
			<path fill="#B5B5B5" d="M144.1,18.7h2.6v10.8h-2.5l-0.1-1.6c-0.6,1.3-2.3,1.9-3.5,1.9c-3.2,0-5.5-1.9-5.5-5.7
				c0-3.7,2.5-5.7,5.6-5.6c1.4,0,2.8,0.7,3.4,1.7L144.1,18.7z M137.6,24.1c0,2,1.4,3.3,3.2,3.3c4.2,0,4.2-6.5,0-6.5
				C139,20.8,137.6,22,137.6,24.1z"/>
			<path fill="#B5B5B5" d="M151.1,18.7v5.6c0,1.6,0.9,2.9,2.6,2.9c1.6,0,2.7-1.4,2.7-3v-5.5h2.6v10.8h-2.4l-0.2-1.5
				c-1.1,1.1-2.1,1.6-3.6,1.6c-2.6,0-4.4-1.9-4.4-5.3v-5.6H151.1z"/>
			<path fill="#B5B5B5" d="M169.3,29.5v-5.6c0-1.6-0.9-2.9-2.6-2.9c-1.6,0-2.8,1.4-2.8,3v5.5h-2.6V18.7h2.4l0.2,1.5
				c1.1-1.1,2.2-1.6,3.5-1.6c2.5,0,4.6,1.9,4.6,5.3v5.7H169.3z"/>
			<path fill="#B5B5B5" d="M185.5,14.2v15.2H183l-0.2-1.5c-0.8,1.3-2.2,1.7-3.5,1.7c-3.2,0-5.5-2.1-5.5-5.6c0-3.7,2.3-5.6,5.5-5.6
				c1.1,0,2.9,0.6,3.5,1.7v-6H185.5z M176.5,24.1c0,1.9,1.4,3.2,3.1,3.2c1.7,0,3.1-1.2,3.1-3.2c0-1.9-1.4-3.1-3.1-3.1
				C177.8,21,176.5,22.2,176.5,24.1z"/>
			<path fill="#B5B5B5" d="M190.2,18.7l0.2,1.2c0.8-1.3,1.9-1.5,3-1.5c1.1,0,2.2,0.4,2.8,1l-1.2,2.3c-0.5-0.5-1-0.7-1.9-0.7
				c-1.4,0-2.7,0.7-2.7,2.7v5.7h-2.7V18.7H190.2z"/>
			<path fill="#B5B5B5" d="M208.8,18.7L202.2,34h-2.9l2-4.7L197,18.7h3.1l1.6,4.6l1,3l1.1-3l2-4.7H208.8z"/>
		</g>
	</g>
</g>
</svg>
